<svg xmlns="http://www.w3.org/2000/svg" viewBox="0 0 1200 800" width="1200" height="800" role="img" aria-label="The Forgetting Problem">
<defs>
  <radialGradient id="glow" cx="22%" cy="59%" r="80%">
    <stop offset="0%" stop-color="#10130F"/>
    <stop offset="100%" stop-color="#070707"/>
  </radialGradient>
</defs>
<rect width="1200" height="800" fill="url(#glow)"/>
<circle cx="96.0" cy="150.0" r="4.2" fill="#EDEDED" opacity="0.800"/><circle cx="126.5" cy="150.0" r="4.2" fill="#EDEDED" opacity="0.764"/><circle cx="157.1" cy="150.0" r="4.2" fill="#EDEDED" opacity="0.728"/><circle cx="187.6" cy="150.0" r="4.2" fill="#EDEDED" opacity="0.693"/><circle cx="218.2" cy="150.0" r="4.2" fill="#EDEDED" opacity="0.659"/><circle cx="248.7" cy="150.0" r="4.2" fill="#EDEDED" opacity="0.625"/><circle cx="279.3" cy="150.0" r="4.2" fill="#EDEDED" opacity="0.592"/><circle cx="309.8" cy="150.0" r="4.2" fill="#EDEDED" opacity="0.559"/><circle cx="340.4" cy="150.0" r="4.2" fill="#EDEDED" opacity="0.528"/><circle cx="370.9" cy="150.0" r="4.2" fill="#EDEDED" opacity="0.496"/><circle cx="401.5" cy="150.0" r="4.2" fill="#EDEDED" opacity="0.465"/><circle cx="432.0" cy="150.0" r="4.2" fill="#EDEDED" opacity="0.435"/><circle cx="462.5" cy="150.0" r="4.2" fill="#EDEDED" opacity="0.406"/><circle cx="493.1" cy="150.0" r="4.2" fill="#EDEDED" opacity="0.377"/><circle cx="523.6" cy="150.0" r="4.2" fill="#EDEDED" opacity="0.350"/><circle cx="554.2" cy="150.0" r="4.2" fill="#EDEDED" opacity="0.322"/><circle cx="584.7" cy="150.0" r="4.2" fill="#EDEDED" opacity="0.296"/><circle cx="615.3" cy="150.0" r="4.2" fill="#EDEDED" opacity="0.270"/><circle cx="645.8" cy="150.0" r="4.2" fill="#EDEDED" opacity="0.245"/><circle cx="676.4" cy="150.0" r="4.2" fill="#EDEDED" opacity="0.221"/><circle cx="706.9" cy="150.0" r="4.2" fill="#EDEDED" opacity="0.198"/><circle cx="737.5" cy="150.0" r="4.2" fill="#EDEDED" opacity="0.175"/><circle cx="768.0" cy="150.0" r="4.2" fill="#EDEDED" opacity="0.154"/><circle cx="798.5" cy="150.0" r="4.2" fill="#EDEDED" opacity="0.133"/><circle cx="829.1" cy="150.0" r="4.2" fill="#EDEDED" opacity="0.114"/><circle cx="859.6" cy="150.0" r="4.2" fill="#EDEDED" opacity="0.095"/><circle cx="890.2" cy="150.0" r="4.2" fill="#EDEDED" opacity="0.078"/><circle cx="920.7" cy="150.0" r="4.2" fill="#EDEDED" opacity="0.062"/><circle cx="951.3" cy="150.0" r="4.2" fill="#EDEDED" opacity="0.047"/><circle cx="96.0" cy="179.4" r="4.2" fill="#EDEDED" opacity="0.800"/><circle cx="126.5" cy="179.4" r="4.2" fill="#EDEDED" opacity="0.764"/><circle cx="157.1" cy="179.4" r="4.2" fill="#EDEDED" opacity="0.728"/><circle cx="187.6" cy="179.4" r="4.2" fill="#EDEDED" opacity="0.693"/><circle cx="218.2" cy="179.4" r="4.2" fill="#EDEDED" opacity="0.659"/><circle cx="248.7" cy="179.4" r="4.2" fill="#EDEDED" opacity="0.625"/><circle cx="279.3" cy="179.4" r="4.2" fill="#EDEDED" opacity="0.592"/><circle cx="309.8" cy="179.4" r="4.2" fill="#EDEDED" opacity="0.559"/><circle cx="340.4" cy="179.4" r="4.2" fill="#EDEDED" opacity="0.528"/><circle cx="370.9" cy="179.4" r="4.2" fill="#EDEDED" opacity="0.496"/><circle cx="401.5" cy="179.4" r="4.2" fill="#EDEDED" opacity="0.465"/><circle cx="432.0" cy="179.4" r="4.2" fill="#EDEDED" opacity="0.435"/><circle cx="462.5" cy="179.4" r="4.2" fill="#EDEDED" opacity="0.406"/><circle cx="493.1" cy="179.4" r="4.2" fill="#EDEDED" opacity="0.377"/><circle cx="523.6" cy="179.4" r="4.2" fill="#EDEDED" opacity="0.350"/><circle cx="554.2" cy="179.4" r="4.2" fill="#EDEDED" opacity="0.322"/><circle cx="584.7" cy="179.4" r="4.2" fill="#EDEDED" opacity="0.296"/><circle cx="615.3" cy="179.4" r="4.2" fill="#EDEDED" opacity="0.270"/><circle cx="645.8" cy="179.4" r="4.2" fill="#EDEDED" opacity="0.245"/><circle cx="676.4" cy="179.4" r="4.2" fill="#EDEDED" opacity="0.221"/><circle cx="706.9" cy="179.4" r="4.2" fill="#EDEDED" opacity="0.198"/><circle cx="737.5" cy="179.4" r="4.2" fill="#EDEDED" opacity="0.175"/><circle cx="768.0" cy="179.4" r="4.2" fill="#EDEDED" opacity="0.154"/><circle cx="798.5" cy="179.4" r="4.2" fill="#EDEDED" opacity="0.133"/><circle cx="829.1" cy="179.4" r="4.2" fill="#EDEDED" opacity="0.114"/><circle cx="859.6" cy="179.4" r="4.2" fill="#EDEDED" opacity="0.095"/><circle cx="890.2" cy="179.4" r="4.2" fill="#EDEDED" opacity="0.078"/><circle cx="920.7" cy="179.4" r="4.2" fill="#EDEDED" opacity="0.062"/><circle cx="951.3" cy="179.4" r="4.2" fill="#EDEDED" opacity="0.047"/><circle cx="96.0" cy="208.8" r="4.2" fill="#EDEDED" opacity="0.800"/><circle cx="126.5" cy="208.8" r="4.2" fill="#EDEDED" opacity="0.764"/><circle cx="157.1" cy="208.8" r="4.2" fill="#EDEDED" opacity="0.728"/><circle cx="187.6" cy="208.8" r="4.2" fill="#EDEDED" opacity="0.693"/><circle cx="218.2" cy="208.8" r="4.2" fill="#EDEDED" opacity="0.659"/><circle cx="248.7" cy="208.8" r="4.2" fill="#EDEDED" opacity="0.625"/><circle cx="279.3" cy="208.8" r="4.2" fill="#EDEDED" opacity="0.592"/><circle cx="309.8" cy="208.8" r="4.2" fill="#EDEDED" opacity="0.559"/><circle cx="340.4" cy="208.8" r="4.2" fill="#EDEDED" opacity="0.528"/><circle cx="370.9" cy="208.8" r="4.2" fill="#EDEDED" opacity="0.496"/><circle cx="401.5" cy="208.8" r="4.2" fill="#EDEDED" opacity="0.465"/><circle cx="432.0" cy="208.8" r="4.2" fill="#EDEDED" opacity="0.435"/><circle cx="462.5" cy="208.8" r="4.2" fill="#EDEDED" opacity="0.406"/><circle cx="493.1" cy="208.8" r="4.2" fill="#EDEDED" opacity="0.377"/><circle cx="523.6" cy="208.8" r="4.2" fill="#EDEDED" opacity="0.350"/><circle cx="554.2" cy="208.8" r="4.2" fill="#EDEDED" opacity="0.322"/><circle cx="584.7" cy="208.8" r="4.2" fill="#EDEDED" opacity="0.296"/><circle cx="615.3" cy="208.8" r="4.2" fill="#EDEDED" opacity="0.270"/><circle cx="645.8" cy="208.8" r="4.2" fill="#EDEDED" opacity="0.245"/><circle cx="676.4" cy="208.8" r="4.2" fill="#EDEDED" opacity="0.221"/><circle cx="706.9" cy="208.8" r="4.2" fill="#EDEDED" opacity="0.198"/><circle cx="737.5" cy="208.8" r="4.2" fill="#EDEDED" opacity="0.175"/><circle cx="768.0" cy="208.8" r="4.2" fill="#EDEDED" opacity="0.154"/><circle cx="798.5" cy="208.8" r="4.2" fill="#EDEDED" opacity="0.133"/><circle cx="829.1" cy="208.8" r="4.2" fill="#EDEDED" opacity="0.114"/><circle cx="859.6" cy="208.8" r="4.2" fill="#EDEDED" opacity="0.095"/><circle cx="890.2" cy="208.8" r="4.2" fill="#EDEDED" opacity="0.078"/><circle cx="920.7" cy="208.8" r="4.2" fill="#EDEDED" opacity="0.062"/><circle cx="951.3" cy="208.8" r="4.2" fill="#EDEDED" opacity="0.047"/><circle cx="96.0" cy="238.2" r="4.2" fill="#EDEDED" opacity="0.800"/><circle cx="126.5" cy="238.2" r="4.2" fill="#EDEDED" opacity="0.764"/><circle cx="157.1" cy="238.2" r="4.2" fill="#EDEDED" opacity="0.728"/><circle cx="187.6" cy="238.2" r="4.2" fill="#EDEDED" opacity="0.693"/><circle cx="218.2" cy="238.2" r="4.2" fill="#EDEDED" opacity="0.659"/><circle cx="248.7" cy="238.2" r="4.2" fill="#EDEDED" opacity="0.625"/><circle cx="279.3" cy="238.2" r="4.2" fill="#EDEDED" opacity="0.592"/><circle cx="309.8" cy="238.2" r="4.2" fill="#EDEDED" opacity="0.559"/><circle cx="340.4" cy="238.2" r="4.2" fill="#EDEDED" opacity="0.528"/><circle cx="370.9" cy="238.2" r="4.2" fill="#EDEDED" opacity="0.496"/><circle cx="401.5" cy="238.2" r="4.2" fill="#EDEDED" opacity="0.465"/><circle cx="432.0" cy="238.2" r="4.2" fill="#EDEDED" opacity="0.435"/><circle cx="462.5" cy="238.2" r="4.2" fill="#EDEDED" opacity="0.406"/><circle cx="493.1" cy="238.2" r="4.2" fill="#EDEDED" opacity="0.377"/><circle cx="523.6" cy="238.2" r="4.2" fill="#EDEDED" opacity="0.350"/><circle cx="554.2" cy="238.2" r="4.2" fill="#EDEDED" opacity="0.322"/><circle cx="584.7" cy="238.2" r="4.2" fill="#EDEDED" opacity="0.296"/><circle cx="615.3" cy="238.2" r="4.2" fill="#EDEDED" opacity="0.270"/><circle cx="645.8" cy="238.2" r="4.2" fill="#EDEDED" opacity="0.245"/><circle cx="676.4" cy="238.2" r="4.2" fill="#EDEDED" opacity="0.221"/><circle cx="706.9" cy="238.2" r="4.2" fill="#EDEDED" opacity="0.198"/><circle cx="737.5" cy="238.2" r="4.2" fill="#EDEDED" opacity="0.175"/><circle cx="768.0" cy="238.2" r="4.2" fill="#EDEDED" opacity="0.154"/><circle cx="798.5" cy="238.2" r="4.2" fill="#EDEDED" opacity="0.133"/><circle cx="829.1" cy="238.2" r="4.2" fill="#EDEDED" opacity="0.114"/><circle cx="859.6" cy="238.2" r="4.2" fill="#EDEDED" opacity="0.095"/><circle cx="890.2" cy="238.2" r="4.2" fill="#EDEDED" opacity="0.078"/><circle cx="920.7" cy="238.2" r="4.2" fill="#EDEDED" opacity="0.062"/><circle cx="951.3" cy="238.2" r="4.2" fill="#EDEDED" opacity="0.047"/><circle cx="96.0" cy="267.6" r="4.2" fill="#EDEDED" opacity="0.800"/><circle cx="126.5" cy="267.6" r="4.2" fill="#EDEDED" opacity="0.764"/><circle cx="157.1" cy="267.6" r="4.2" fill="#EDEDED" opacity="0.728"/><circle cx="187.6" cy="267.6" r="4.2" fill="#EDEDED" opacity="0.693"/><circle cx="218.2" cy="267.6" r="4.2" fill="#EDEDED" opacity="0.659"/><circle cx="248.7" cy="267.6" r="4.2" fill="#EDEDED" opacity="0.625"/><circle cx="279.3" cy="267.6" r="4.2" fill="#EDEDED" opacity="0.592"/><circle cx="309.8" cy="267.6" r="4.2" fill="#EDEDED" opacity="0.559"/><circle cx="340.4" cy="267.6" r="4.2" fill="#EDEDED" opacity="0.528"/><circle cx="370.9" cy="267.6" r="4.2" fill="#EDEDED" opacity="0.496"/><circle cx="401.5" cy="267.6" r="4.2" fill="#EDEDED" opacity="0.465"/><circle cx="432.0" cy="267.6" r="4.2" fill="#EDEDED" opacity="0.435"/><circle cx="462.5" cy="267.6" r="4.2" fill="#EDEDED" opacity="0.406"/><circle cx="493.1" cy="267.6" r="4.2" fill="#EDEDED" opacity="0.377"/><circle cx="523.6" cy="267.6" r="4.2" fill="#EDEDED" opacity="0.350"/><circle cx="554.2" cy="267.6" r="4.2" fill="#EDEDED" opacity="0.322"/><circle cx="584.7" cy="267.6" r="4.2" fill="#EDEDED" opacity="0.296"/><circle cx="615.3" cy="267.6" r="4.2" fill="#EDEDED" opacity="0.270"/><circle cx="645.8" cy="267.6" r="4.2" fill="#EDEDED" opacity="0.245"/><circle cx="676.4" cy="267.6" r="4.2" fill="#EDEDED" opacity="0.221"/><circle cx="706.9" cy="267.6" r="4.2" fill="#EDEDED" opacity="0.198"/><circle cx="737.5" cy="267.6" r="4.2" fill="#EDEDED" opacity="0.175"/><circle cx="768.0" cy="267.6" r="4.2" fill="#EDEDED" opacity="0.154"/><circle cx="798.5" cy="267.6" r="4.2" fill="#EDEDED" opacity="0.133"/><circle cx="829.1" cy="267.6" r="4.2" fill="#EDEDED" opacity="0.114"/><circle cx="859.6" cy="267.6" r="4.2" fill="#EDEDED" opacity="0.095"/><circle cx="890.2" cy="267.6" r="4.2" fill="#EDEDED" opacity="0.078"/><circle cx="920.7" cy="267.6" r="4.2" fill="#EDEDED" opacity="0.062"/><circle cx="951.3" cy="267.6" r="4.2" fill="#EDEDED" opacity="0.047"/><circle cx="96.0" cy="297.1" r="4.2" fill="#EDEDED" opacity="0.800"/><circle cx="126.5" cy="297.1" r="4.2" fill="#EDEDED" opacity="0.764"/><circle cx="157.1" cy="297.1" r="4.2" fill="#EDEDED" opacity="0.728"/><circle cx="187.6" cy="297.1" r="4.2" fill="#EDEDED" opacity="0.693"/><circle cx="218.2" cy="297.1" r="4.2" fill="#EDEDED" opacity="0.659"/><circle cx="248.7" cy="297.1" r="4.2" fill="#EDEDED" opacity="0.625"/><circle cx="279.3" cy="297.1" r="4.2" fill="#EDEDED" opacity="0.592"/><circle cx="309.8" cy="297.1" r="4.2" fill="#EDEDED" opacity="0.559"/><circle cx="340.4" cy="297.1" r="4.2" fill="#EDEDED" opacity="0.528"/><circle cx="370.9" cy="297.1" r="4.2" fill="#EDEDED" opacity="0.496"/><circle cx="401.5" cy="297.1" r="4.2" fill="#EDEDED" opacity="0.465"/><circle cx="432.0" cy="297.1" r="4.2" fill="#EDEDED" opacity="0.435"/><circle cx="462.5" cy="297.1" r="4.2" fill="#EDEDED" opacity="0.406"/><circle cx="493.1" cy="297.1" r="4.2" fill="#EDEDED" opacity="0.377"/><circle cx="523.6" cy="297.1" r="4.2" fill="#EDEDED" opacity="0.350"/><circle cx="554.2" cy="297.1" r="4.2" fill="#EDEDED" opacity="0.322"/><circle cx="584.7" cy="297.1" r="4.2" fill="#EDEDED" opacity="0.296"/><circle cx="615.3" cy="297.1" r="4.2" fill="#EDEDED" opacity="0.270"/><circle cx="645.8" cy="297.1" r="4.2" fill="#EDEDED" opacity="0.245"/><circle cx="676.4" cy="297.1" r="4.2" fill="#EDEDED" opacity="0.221"/><circle cx="706.9" cy="297.1" r="4.2" fill="#EDEDED" opacity="0.198"/><circle cx="737.5" cy="297.1" r="4.2" fill="#EDEDED" opacity="0.175"/><circle cx="768.0" cy="297.1" r="4.2" fill="#EDEDED" opacity="0.154"/><circle cx="798.5" cy="297.1" r="4.2" fill="#EDEDED" opacity="0.133"/><circle cx="829.1" cy="297.1" r="4.2" fill="#EDEDED" opacity="0.114"/><circle cx="859.6" cy="297.1" r="4.2" fill="#EDEDED" opacity="0.095"/><circle cx="890.2" cy="297.1" r="4.2" fill="#EDEDED" opacity="0.078"/><circle cx="920.7" cy="297.1" r="4.2" fill="#EDEDED" opacity="0.062"/><circle cx="951.3" cy="297.1" r="4.2" fill="#EDEDED" opacity="0.047"/><circle cx="96.0" cy="326.5" r="4.2" fill="#EDEDED" opacity="0.800"/><circle cx="126.5" cy="326.5" r="4.2" fill="#EDEDED" opacity="0.764"/><circle cx="157.1" cy="326.5" r="4.2" fill="#EDEDED" opacity="0.728"/><circle cx="187.6" cy="326.5" r="4.2" fill="#EDEDED" opacity="0.693"/><circle cx="218.2" cy="326.5" r="4.2" fill="#EDEDED" opacity="0.659"/><circle cx="248.7" cy="326.5" r="4.2" fill="#EDEDED" opacity="0.625"/><circle cx="279.3" cy="326.5" r="4.2" fill="#EDEDED" opacity="0.592"/><circle cx="309.8" cy="326.5" r="4.2" fill="#EDEDED" opacity="0.559"/><circle cx="340.4" cy="326.5" r="4.2" fill="#EDEDED" opacity="0.528"/><circle cx="370.9" cy="326.5" r="4.2" fill="#EDEDED" opacity="0.496"/><circle cx="401.5" cy="326.5" r="4.2" fill="#EDEDED" opacity="0.465"/><circle cx="432.0" cy="326.5" r="4.2" fill="#EDEDED" opacity="0.435"/><circle cx="462.5" cy="326.5" r="4.2" fill="#EDEDED" opacity="0.406"/><circle cx="493.1" cy="326.5" r="4.2" fill="#EDEDED" opacity="0.377"/><circle cx="523.6" cy="326.5" r="4.2" fill="#EDEDED" opacity="0.350"/><circle cx="554.2" cy="326.5" r="4.2" fill="#EDEDED" opacity="0.322"/><circle cx="584.7" cy="326.5" r="4.2" fill="#EDEDED" opacity="0.296"/><circle cx="615.3" cy="326.5" r="4.2" fill="#EDEDED" opacity="0.270"/><circle cx="645.8" cy="326.5" r="4.2" fill="#EDEDED" opacity="0.245"/><circle cx="676.4" cy="326.5" r="4.2" fill="#EDEDED" opacity="0.221"/><circle cx="706.9" cy="326.5" r="4.2" fill="#EDEDED" opacity="0.198"/><circle cx="737.5" cy="326.5" r="4.2" fill="#EDEDED" opacity="0.175"/><circle cx="768.0" cy="326.5" r="4.2" fill="#EDEDED" opacity="0.154"/><circle cx="798.5" cy="326.5" r="4.2" fill="#EDEDED" opacity="0.133"/><circle cx="829.1" cy="326.5" r="4.2" fill="#EDEDED" opacity="0.114"/><circle cx="859.6" cy="326.5" r="4.2" fill="#EDEDED" opacity="0.095"/><circle cx="890.2" cy="326.5" r="4.2" fill="#EDEDED" opacity="0.078"/><circle cx="920.7" cy="326.5" r="4.2" fill="#EDEDED" opacity="0.062"/><circle cx="951.3" cy="326.5" r="4.2" fill="#EDEDED" opacity="0.047"/><circle cx="96.0" cy="355.9" r="4.2" fill="#EDEDED" opacity="0.800"/><circle cx="126.5" cy="355.9" r="4.2" fill="#EDEDED" opacity="0.764"/><circle cx="157.1" cy="355.9" r="4.2" fill="#EDEDED" opacity="0.728"/><circle cx="187.6" cy="355.9" r="4.2" fill="#EDEDED" opacity="0.693"/><circle cx="218.2" cy="355.9" r="4.2" fill="#EDEDED" opacity="0.659"/><circle cx="248.7" cy="355.9" r="4.2" fill="#EDEDED" opacity="0.625"/><circle cx="279.3" cy="355.9" r="4.2" fill="#EDEDED" opacity="0.592"/><circle cx="309.8" cy="355.9" r="4.2" fill="#EDEDED" opacity="0.559"/><circle cx="340.4" cy="355.9" r="4.2" fill="#EDEDED" opacity="0.528"/><circle cx="370.9" cy="355.9" r="4.2" fill="#EDEDED" opacity="0.496"/><circle cx="401.5" cy="355.9" r="4.2" fill="#EDEDED" opacity="0.465"/><circle cx="432.0" cy="355.9" r="4.2" fill="#EDEDED" opacity="0.435"/><circle cx="462.5" cy="355.9" r="4.2" fill="#EDEDED" opacity="0.406"/><circle cx="493.1" cy="355.9" r="4.2" fill="#EDEDED" opacity="0.377"/><circle cx="523.6" cy="355.9" r="4.2" fill="#EDEDED" opacity="0.350"/><circle cx="554.2" cy="355.9" r="4.2" fill="#EDEDED" opacity="0.322"/><circle cx="584.7" cy="355.9" r="4.2" fill="#EDEDED" opacity="0.296"/><circle cx="615.3" cy="355.9" r="4.2" fill="#EDEDED" opacity="0.270"/><circle cx="645.8" cy="355.9" r="4.2" fill="#EDEDED" opacity="0.245"/><circle cx="676.4" cy="355.9" r="4.2" fill="#EDEDED" opacity="0.221"/><circle cx="706.9" cy="355.9" r="4.2" fill="#EDEDED" opacity="0.198"/><circle cx="737.5" cy="355.9" r="4.2" fill="#EDEDED" opacity="0.175"/><circle cx="768.0" cy="355.9" r="4.2" fill="#EDEDED" opacity="0.154"/><circle cx="798.5" cy="355.9" r="4.2" fill="#EDEDED" opacity="0.133"/><circle cx="829.1" cy="355.9" r="4.2" fill="#EDEDED" opacity="0.114"/><circle cx="859.6" cy="355.9" r="4.2" fill="#EDEDED" opacity="0.095"/><circle cx="890.2" cy="355.9" r="4.2" fill="#EDEDED" opacity="0.078"/><circle cx="920.7" cy="355.9" r="4.2" fill="#EDEDED" opacity="0.062"/><circle cx="951.3" cy="355.9" r="4.2" fill="#EDEDED" opacity="0.047"/><circle cx="96.0" cy="385.3" r="4.2" fill="#EDEDED" opacity="0.800"/><circle cx="126.5" cy="385.3" r="4.2" fill="#EDEDED" opacity="0.764"/><circle cx="157.1" cy="385.3" r="4.2" fill="#EDEDED" opacity="0.728"/><circle cx="187.6" cy="385.3" r="4.2" fill="#EDEDED" opacity="0.693"/><circle cx="218.2" cy="385.3" r="4.2" fill="#EDEDED" opacity="0.659"/><circle cx="248.7" cy="385.3" r="4.2" fill="#EDEDED" opacity="0.625"/><circle cx="279.3" cy="385.3" r="4.2" fill="#EDEDED" opacity="0.592"/><circle cx="309.8" cy="385.3" r="4.2" fill="#EDEDED" opacity="0.559"/><circle cx="340.4" cy="385.3" r="4.2" fill="#EDEDED" opacity="0.528"/><circle cx="370.9" cy="385.3" r="4.2" fill="#EDEDED" opacity="0.496"/><circle cx="401.5" cy="385.3" r="4.2" fill="#EDEDED" opacity="0.465"/><circle cx="432.0" cy="385.3" r="4.2" fill="#EDEDED" opacity="0.435"/><circle cx="462.5" cy="385.3" r="4.2" fill="#EDEDED" opacity="0.406"/><circle cx="493.1" cy="385.3" r="4.2" fill="#EDEDED" opacity="0.377"/><circle cx="523.6" cy="385.3" r="4.2" fill="#EDEDED" opacity="0.350"/><circle cx="554.2" cy="385.3" r="4.2" fill="#EDEDED" opacity="0.322"/><circle cx="584.7" cy="385.3" r="4.2" fill="#EDEDED" opacity="0.296"/><circle cx="615.3" cy="385.3" r="4.2" fill="#EDEDED" opacity="0.270"/><circle cx="645.8" cy="385.3" r="4.2" fill="#EDEDED" opacity="0.245"/><circle cx="676.4" cy="385.3" r="4.2" fill="#EDEDED" opacity="0.221"/><circle cx="706.9" cy="385.3" r="4.2" fill="#EDEDED" opacity="0.198"/><circle cx="737.5" cy="385.3" r="4.2" fill="#EDEDED" opacity="0.175"/><circle cx="768.0" cy="385.3" r="4.2" fill="#EDEDED" opacity="0.154"/><circle cx="798.5" cy="385.3" r="4.2" fill="#EDEDED" opacity="0.133"/><circle cx="829.1" cy="385.3" r="4.2" fill="#EDEDED" opacity="0.114"/><circle cx="859.6" cy="385.3" r="4.2" fill="#EDEDED" opacity="0.095"/><circle cx="890.2" cy="385.3" r="4.2" fill="#EDEDED" opacity="0.078"/><circle cx="920.7" cy="385.3" r="4.2" fill="#EDEDED" opacity="0.062"/><circle cx="951.3" cy="385.3" r="4.2" fill="#EDEDED" opacity="0.047"/><circle cx="96.0" cy="414.7" r="4.2" fill="#EDEDED" opacity="0.800"/><circle cx="126.5" cy="414.7" r="4.2" fill="#EDEDED" opacity="0.764"/><circle cx="157.1" cy="414.7" r="4.2" fill="#EDEDED" opacity="0.728"/><circle cx="187.6" cy="414.7" r="4.2" fill="#EDEDED" opacity="0.693"/><circle cx="218.2" cy="414.7" r="4.2" fill="#EDEDED" opacity="0.659"/><circle cx="248.7" cy="414.7" r="4.2" fill="#EDEDED" opacity="0.625"/><circle cx="279.3" cy="414.7" r="4.2" fill="#EDEDED" opacity="0.592"/><circle cx="309.8" cy="414.7" r="4.2" fill="#EDEDED" opacity="0.559"/><circle cx="340.4" cy="414.7" r="4.2" fill="#EDEDED" opacity="0.528"/><circle cx="370.9" cy="414.7" r="4.2" fill="#EDEDED" opacity="0.496"/><circle cx="401.5" cy="414.7" r="4.2" fill="#EDEDED" opacity="0.465"/><circle cx="432.0" cy="414.7" r="4.2" fill="#EDEDED" opacity="0.435"/><circle cx="462.5" cy="414.7" r="4.2" fill="#EDEDED" opacity="0.406"/><circle cx="493.1" cy="414.7" r="4.2" fill="#EDEDED" opacity="0.377"/><circle cx="523.6" cy="414.7" r="4.2" fill="#EDEDED" opacity="0.350"/><circle cx="554.2" cy="414.7" r="4.2" fill="#EDEDED" opacity="0.322"/><circle cx="584.7" cy="414.7" r="4.2" fill="#EDEDED" opacity="0.296"/><circle cx="615.3" cy="414.7" r="4.2" fill="#EDEDED" opacity="0.270"/><circle cx="645.8" cy="414.7" r="4.2" fill="#EDEDED" opacity="0.245"/><circle cx="676.4" cy="414.7" r="4.2" fill="#EDEDED" opacity="0.221"/><circle cx="706.9" cy="414.7" r="4.2" fill="#EDEDED" opacity="0.198"/><circle cx="737.5" cy="414.7" r="4.2" fill="#EDEDED" opacity="0.175"/><circle cx="768.0" cy="414.7" r="4.2" fill="#EDEDED" opacity="0.154"/><circle cx="798.5" cy="414.7" r="4.2" fill="#EDEDED" opacity="0.133"/><circle cx="829.1" cy="414.7" r="4.2" fill="#EDEDED" opacity="0.114"/><circle cx="859.6" cy="414.7" r="4.2" fill="#EDEDED" opacity="0.095"/><circle cx="890.2" cy="414.7" r="4.2" fill="#EDEDED" opacity="0.078"/><circle cx="920.7" cy="414.7" r="4.2" fill="#EDEDED" opacity="0.062"/><circle cx="951.3" cy="414.7" r="4.2" fill="#EDEDED" opacity="0.047"/><circle cx="96.0" cy="444.1" r="5.4" fill="#E8F5E0" opacity="0.95"/><circle cx="126.5" cy="444.1" r="5.4" fill="#E8F5E0" opacity="0.95"/><circle cx="157.1" cy="444.1" r="5.4" fill="#E8F5E0" opacity="0.94"/><circle cx="187.6" cy="444.1" r="5.4" fill="#E8F5E0" opacity="0.94"/><circle cx="218.2" cy="444.1" r="5.4" fill="#E8F5E0" opacity="0.93"/><circle cx="248.7" cy="444.1" r="5.4" fill="#E8F5E0" opacity="0.93"/><circle cx="279.3" cy="444.1" r="5.4" fill="#E8F5E0" opacity="0.92"/><circle cx="309.8" cy="444.1" r="5.4" fill="#E8F5E0" opacity="0.92"/><circle cx="340.4" cy="444.1" r="5.4" fill="#E8F5E0" opacity="0.91"/><circle cx="370.9" cy="444.1" r="5.4" fill="#E8F5E0" opacity="0.91"/><circle cx="401.5" cy="444.1" r="5.4" fill="#E8F5E0" opacity="0.90"/><circle cx="432.0" cy="444.1" r="5.4" fill="#E8F5E0" opacity="0.90"/><circle cx="462.5" cy="444.1" r="5.4" fill="#E8F5E0" opacity="0.90"/><circle cx="493.1" cy="444.1" r="5.4" fill="#E8F5E0" opacity="0.89"/><circle cx="523.6" cy="444.1" r="5.4" fill="#E8F5E0" opacity="0.89"/><circle cx="554.2" cy="444.1" r="5.4" fill="#E8F5E0" opacity="0.88"/><circle cx="584.7" cy="444.1" r="5.4" fill="#E8F5E0" opacity="0.88"/><circle cx="615.3" cy="444.1" r="5.4" fill="#E8F5E0" opacity="0.87"/><circle cx="645.8" cy="444.1" r="5.4" fill="#E8F5E0" opacity="0.87"/><circle cx="676.4" cy="444.1" r="5.4" fill="#E8F5E0" opacity="0.86"/><circle cx="706.9" cy="444.1" r="5.4" fill="#E8F5E0" opacity="0.86"/><circle cx="737.5" cy="444.1" r="5.4" fill="#E8F5E0" opacity="0.85"/><circle cx="768.0" cy="444.1" r="5.4" fill="#E8F5E0" opacity="0.85"/><circle cx="798.5" cy="444.1" r="5.4" fill="#E8F5E0" opacity="0.85"/><circle cx="829.1" cy="444.1" r="5.4" fill="#E8F5E0" opacity="0.84"/><circle cx="859.6" cy="444.1" r="5.4" fill="#E8F5E0" opacity="0.84"/><circle cx="890.2" cy="444.1" r="5.4" fill="#E8F5E0" opacity="0.83"/><circle cx="920.7" cy="444.1" r="5.4" fill="#E8F5E0" opacity="0.83"/><circle cx="951.3" cy="444.1" r="5.4" fill="#E8F5E0" opacity="0.82"/><circle cx="981.8" cy="444.1" r="5.4" fill="#E8F5E0" opacity="0.82"/><circle cx="1012.4" cy="444.1" r="5.4" fill="#E8F5E0" opacity="0.81"/><circle cx="1042.9" cy="444.1" r="5.4" fill="#E8F5E0" opacity="0.81"/><circle cx="1073.5" cy="444.1" r="5.4" fill="#E8F5E0" opacity="0.80"/><circle cx="1104.0" cy="444.1" r="5.4" fill="#E8F5E0" opacity="0.80"/><circle cx="96.0" cy="473.5" r="4.2" fill="#EDEDED" opacity="0.800"/><circle cx="126.5" cy="473.5" r="4.2" fill="#EDEDED" opacity="0.764"/><circle cx="157.1" cy="473.5" r="4.2" fill="#EDEDED" opacity="0.728"/><circle cx="187.6" cy="473.5" r="4.2" fill="#EDEDED" opacity="0.693"/><circle cx="218.2" cy="473.5" r="4.2" fill="#EDEDED" opacity="0.659"/><circle cx="248.7" cy="473.5" r="4.2" fill="#EDEDED" opacity="0.625"/><circle cx="279.3" cy="473.5" r="4.2" fill="#EDEDED" opacity="0.592"/><circle cx="309.8" cy="473.5" r="4.2" fill="#EDEDED" opacity="0.559"/><circle cx="340.4" cy="473.5" r="4.2" fill="#EDEDED" opacity="0.528"/><circle cx="370.9" cy="473.5" r="4.2" fill="#EDEDED" opacity="0.496"/><circle cx="401.5" cy="473.5" r="4.2" fill="#EDEDED" opacity="0.465"/><circle cx="432.0" cy="473.5" r="4.2" fill="#EDEDED" opacity="0.435"/><circle cx="462.5" cy="473.5" r="4.2" fill="#EDEDED" opacity="0.406"/><circle cx="493.1" cy="473.5" r="4.2" fill="#EDEDED" opacity="0.377"/><circle cx="523.6" cy="473.5" r="4.2" fill="#EDEDED" opacity="0.350"/><circle cx="554.2" cy="473.5" r="4.2" fill="#EDEDED" opacity="0.322"/><circle cx="584.7" cy="473.5" r="4.2" fill="#EDEDED" opacity="0.296"/><circle cx="615.3" cy="473.5" r="4.2" fill="#EDEDED" opacity="0.270"/><circle cx="645.8" cy="473.5" r="4.2" fill="#EDEDED" opacity="0.245"/><circle cx="676.4" cy="473.5" r="4.2" fill="#EDEDED" opacity="0.221"/><circle cx="706.9" cy="473.5" r="4.2" fill="#EDEDED" opacity="0.198"/><circle cx="737.5" cy="473.5" r="4.2" fill="#EDEDED" opacity="0.175"/><circle cx="768.0" cy="473.5" r="4.2" fill="#EDEDED" opacity="0.154"/><circle cx="798.5" cy="473.5" r="4.2" fill="#EDEDED" opacity="0.133"/><circle cx="829.1" cy="473.5" r="4.2" fill="#EDEDED" opacity="0.114"/><circle cx="859.6" cy="473.5" r="4.2" fill="#EDEDED" opacity="0.095"/><circle cx="890.2" cy="473.5" r="4.2" fill="#EDEDED" opacity="0.078"/><circle cx="920.7" cy="473.5" r="4.2" fill="#EDEDED" opacity="0.062"/><circle cx="951.3" cy="473.5" r="4.2" fill="#EDEDED" opacity="0.047"/><circle cx="96.0" cy="502.9" r="4.2" fill="#EDEDED" opacity="0.800"/><circle cx="126.5" cy="502.9" r="4.2" fill="#EDEDED" opacity="0.764"/><circle cx="157.1" cy="502.9" r="4.2" fill="#EDEDED" opacity="0.728"/><circle cx="187.6" cy="502.9" r="4.2" fill="#EDEDED" opacity="0.693"/><circle cx="218.2" cy="502.9" r="4.2" fill="#EDEDED" opacity="0.659"/><circle cx="248.7" cy="502.9" r="4.2" fill="#EDEDED" opacity="0.625"/><circle cx="279.3" cy="502.9" r="4.2" fill="#EDEDED" opacity="0.592"/><circle cx="309.8" cy="502.9" r="4.2" fill="#EDEDED" opacity="0.559"/><circle cx="340.4" cy="502.9" r="4.2" fill="#EDEDED" opacity="0.528"/><circle cx="370.9" cy="502.9" r="4.2" fill="#EDEDED" opacity="0.496"/><circle cx="401.5" cy="502.9" r="4.2" fill="#EDEDED" opacity="0.465"/><circle cx="432.0" cy="502.9" r="4.2" fill="#EDEDED" opacity="0.435"/><circle cx="462.5" cy="502.9" r="4.2" fill="#EDEDED" opacity="0.406"/><circle cx="493.1" cy="502.9" r="4.2" fill="#EDEDED" opacity="0.377"/><circle cx="523.6" cy="502.9" r="4.2" fill="#EDEDED" opacity="0.350"/><circle cx="554.2" cy="502.9" r="4.2" fill="#EDEDED" opacity="0.322"/><circle cx="584.7" cy="502.9" r="4.2" fill="#EDEDED" opacity="0.296"/><circle cx="615.3" cy="502.9" r="4.2" fill="#EDEDED" opacity="0.270"/><circle cx="645.8" cy="502.9" r="4.2" fill="#EDEDED" opacity="0.245"/><circle cx="676.4" cy="502.9" r="4.2" fill="#EDEDED" opacity="0.221"/><circle cx="706.9" cy="502.9" r="4.2" fill="#EDEDED" opacity="0.198"/><circle cx="737.5" cy="502.9" r="4.2" fill="#EDEDED" opacity="0.175"/><circle cx="768.0" cy="502.9" r="4.2" fill="#EDEDED" opacity="0.154"/><circle cx="798.5" cy="502.9" r="4.2" fill="#EDEDED" opacity="0.133"/><circle cx="829.1" cy="502.9" r="4.2" fill="#EDEDED" opacity="0.114"/><circle cx="859.6" cy="502.9" r="4.2" fill="#EDEDED" opacity="0.095"/><circle cx="890.2" cy="502.9" r="4.2" fill="#EDEDED" opacity="0.078"/><circle cx="920.7" cy="502.9" r="4.2" fill="#EDEDED" opacity="0.062"/><circle cx="951.3" cy="502.9" r="4.2" fill="#EDEDED" opacity="0.047"/><circle cx="96.0" cy="532.4" r="4.2" fill="#EDEDED" opacity="0.800"/><circle cx="126.5" cy="532.4" r="4.2" fill="#EDEDED" opacity="0.764"/><circle cx="157.1" cy="532.4" r="4.2" fill="#EDEDED" opacity="0.728"/><circle cx="187.6" cy="532.4" r="4.2" fill="#EDEDED" opacity="0.693"/><circle cx="218.2" cy="532.4" r="4.2" fill="#EDEDED" opacity="0.659"/><circle cx="248.7" cy="532.4" r="4.2" fill="#EDEDED" opacity="0.625"/><circle cx="279.3" cy="532.4" r="4.2" fill="#EDEDED" opacity="0.592"/><circle cx="309.8" cy="532.4" r="4.2" fill="#EDEDED" opacity="0.559"/><circle cx="340.4" cy="532.4" r="4.2" fill="#EDEDED" opacity="0.528"/><circle cx="370.9" cy="532.4" r="4.2" fill="#EDEDED" opacity="0.496"/><circle cx="401.5" cy="532.4" r="4.2" fill="#EDEDED" opacity="0.465"/><circle cx="432.0" cy="532.4" r="4.2" fill="#EDEDED" opacity="0.435"/><circle cx="462.5" cy="532.4" r="4.2" fill="#EDEDED" opacity="0.406"/><circle cx="493.1" cy="532.4" r="4.2" fill="#EDEDED" opacity="0.377"/><circle cx="523.6" cy="532.4" r="4.2" fill="#EDEDED" opacity="0.350"/><circle cx="554.2" cy="532.4" r="4.2" fill="#EDEDED" opacity="0.322"/><circle cx="584.7" cy="532.4" r="4.2" fill="#EDEDED" opacity="0.296"/><circle cx="615.3" cy="532.4" r="4.2" fill="#EDEDED" opacity="0.270"/><circle cx="645.8" cy="532.4" r="4.2" fill="#EDEDED" opacity="0.245"/><circle cx="676.4" cy="532.4" r="4.2" fill="#EDEDED" opacity="0.221"/><circle cx="706.9" cy="532.4" r="4.2" fill="#EDEDED" opacity="0.198"/><circle cx="737.5" cy="532.4" r="4.2" fill="#EDEDED" opacity="0.175"/><circle cx="768.0" cy="532.4" r="4.2" fill="#EDEDED" opacity="0.154"/><circle cx="798.5" cy="532.4" r="4.2" fill="#EDEDED" opacity="0.133"/><circle cx="829.1" cy="532.4" r="4.2" fill="#EDEDED" opacity="0.114"/><circle cx="859.6" cy="532.4" r="4.2" fill="#EDEDED" opacity="0.095"/><circle cx="890.2" cy="532.4" r="4.2" fill="#EDEDED" opacity="0.078"/><circle cx="920.7" cy="532.4" r="4.2" fill="#EDEDED" opacity="0.062"/><circle cx="951.3" cy="532.4" r="4.2" fill="#EDEDED" opacity="0.047"/><circle cx="96.0" cy="561.8" r="4.2" fill="#EDEDED" opacity="0.800"/><circle cx="126.5" cy="561.8" r="4.2" fill="#EDEDED" opacity="0.764"/><circle cx="157.1" cy="561.8" r="4.2" fill="#EDEDED" opacity="0.728"/><circle cx="187.6" cy="561.8" r="4.2" fill="#EDEDED" opacity="0.693"/><circle cx="218.2" cy="561.8" r="4.2" fill="#EDEDED" opacity="0.659"/><circle cx="248.7" cy="561.8" r="4.2" fill="#EDEDED" opacity="0.625"/><circle cx="279.3" cy="561.8" r="4.2" fill="#EDEDED" opacity="0.592"/><circle cx="309.8" cy="561.8" r="4.2" fill="#EDEDED" opacity="0.559"/><circle cx="340.4" cy="561.8" r="4.2" fill="#EDEDED" opacity="0.528"/><circle cx="370.9" cy="561.8" r="4.2" fill="#EDEDED" opacity="0.496"/><circle cx="401.5" cy="561.8" r="4.2" fill="#EDEDED" opacity="0.465"/><circle cx="432.0" cy="561.8" r="4.2" fill="#EDEDED" opacity="0.435"/><circle cx="462.5" cy="561.8" r="4.2" fill="#EDEDED" opacity="0.406"/><circle cx="493.1" cy="561.8" r="4.2" fill="#EDEDED" opacity="0.377"/><circle cx="523.6" cy="561.8" r="4.2" fill="#EDEDED" opacity="0.350"/><circle cx="554.2" cy="561.8" r="4.2" fill="#EDEDED" opacity="0.322"/><circle cx="584.7" cy="561.8" r="4.2" fill="#EDEDED" opacity="0.296"/><circle cx="615.3" cy="561.8" r="4.2" fill="#EDEDED" opacity="0.270"/><circle cx="645.8" cy="561.8" r="4.2" fill="#EDEDED" opacity="0.245"/><circle cx="676.4" cy="561.8" r="4.2" fill="#EDEDED" opacity="0.221"/><circle cx="706.9" cy="561.8" r="4.2" fill="#EDEDED" opacity="0.198"/><circle cx="737.5" cy="561.8" r="4.2" fill="#EDEDED" opacity="0.175"/><circle cx="768.0" cy="561.8" r="4.2" fill="#EDEDED" opacity="0.154"/><circle cx="798.5" cy="561.8" r="4.2" fill="#EDEDED" opacity="0.133"/><circle cx="829.1" cy="561.8" r="4.2" fill="#EDEDED" opacity="0.114"/><circle cx="859.6" cy="561.8" r="4.2" fill="#EDEDED" opacity="0.095"/><circle cx="890.2" cy="561.8" r="4.2" fill="#EDEDED" opacity="0.078"/><circle cx="920.7" cy="561.8" r="4.2" fill="#EDEDED" opacity="0.062"/><circle cx="951.3" cy="561.8" r="4.2" fill="#EDEDED" opacity="0.047"/><circle cx="96.0" cy="591.2" r="4.2" fill="#EDEDED" opacity="0.800"/><circle cx="126.5" cy="591.2" r="4.2" fill="#EDEDED" opacity="0.764"/><circle cx="157.1" cy="591.2" r="4.2" fill="#EDEDED" opacity="0.728"/><circle cx="187.6" cy="591.2" r="4.2" fill="#EDEDED" opacity="0.693"/><circle cx="218.2" cy="591.2" r="4.2" fill="#EDEDED" opacity="0.659"/><circle cx="248.7" cy="591.2" r="4.2" fill="#EDEDED" opacity="0.625"/><circle cx="279.3" cy="591.2" r="4.2" fill="#EDEDED" opacity="0.592"/><circle cx="309.8" cy="591.2" r="4.2" fill="#EDEDED" opacity="0.559"/><circle cx="340.4" cy="591.2" r="4.2" fill="#EDEDED" opacity="0.528"/><circle cx="370.9" cy="591.2" r="4.2" fill="#EDEDED" opacity="0.496"/><circle cx="401.5" cy="591.2" r="4.2" fill="#EDEDED" opacity="0.465"/><circle cx="432.0" cy="591.2" r="4.2" fill="#EDEDED" opacity="0.435"/><circle cx="462.5" cy="591.2" r="4.2" fill="#EDEDED" opacity="0.406"/><circle cx="493.1" cy="591.2" r="4.2" fill="#EDEDED" opacity="0.377"/><circle cx="523.6" cy="591.2" r="4.2" fill="#EDEDED" opacity="0.350"/><circle cx="554.2" cy="591.2" r="4.2" fill="#EDEDED" opacity="0.322"/><circle cx="584.7" cy="591.2" r="4.2" fill="#EDEDED" opacity="0.296"/><circle cx="615.3" cy="591.2" r="4.2" fill="#EDEDED" opacity="0.270"/><circle cx="645.8" cy="591.2" r="4.2" fill="#EDEDED" opacity="0.245"/><circle cx="676.4" cy="591.2" r="4.2" fill="#EDEDED" opacity="0.221"/><circle cx="706.9" cy="591.2" r="4.2" fill="#EDEDED" opacity="0.198"/><circle cx="737.5" cy="591.2" r="4.2" fill="#EDEDED" opacity="0.175"/><circle cx="768.0" cy="591.2" r="4.2" fill="#EDEDED" opacity="0.154"/><circle cx="798.5" cy="591.2" r="4.2" fill="#EDEDED" opacity="0.133"/><circle cx="829.1" cy="591.2" r="4.2" fill="#EDEDED" opacity="0.114"/><circle cx="859.6" cy="591.2" r="4.2" fill="#EDEDED" opacity="0.095"/><circle cx="890.2" cy="591.2" r="4.2" fill="#EDEDED" opacity="0.078"/><circle cx="920.7" cy="591.2" r="4.2" fill="#EDEDED" opacity="0.062"/><circle cx="951.3" cy="591.2" r="4.2" fill="#EDEDED" opacity="0.047"/><circle cx="96.0" cy="620.6" r="4.2" fill="#EDEDED" opacity="0.800"/><circle cx="126.5" cy="620.6" r="4.2" fill="#EDEDED" opacity="0.764"/><circle cx="157.1" cy="620.6" r="4.2" fill="#EDEDED" opacity="0.728"/><circle cx="187.6" cy="620.6" r="4.2" fill="#EDEDED" opacity="0.693"/><circle cx="218.2" cy="620.6" r="4.2" fill="#EDEDED" opacity="0.659"/><circle cx="248.7" cy="620.6" r="4.2" fill="#EDEDED" opacity="0.625"/><circle cx="279.3" cy="620.6" r="4.2" fill="#EDEDED" opacity="0.592"/><circle cx="309.8" cy="620.6" r="4.2" fill="#EDEDED" opacity="0.559"/><circle cx="340.4" cy="620.6" r="4.2" fill="#EDEDED" opacity="0.528"/><circle cx="370.9" cy="620.6" r="4.2" fill="#EDEDED" opacity="0.496"/><circle cx="401.5" cy="620.6" r="4.2" fill="#EDEDED" opacity="0.465"/><circle cx="432.0" cy="620.6" r="4.2" fill="#EDEDED" opacity="0.435"/><circle cx="462.5" cy="620.6" r="4.2" fill="#EDEDED" opacity="0.406"/><circle cx="493.1" cy="620.6" r="4.2" fill="#EDEDED" opacity="0.377"/><circle cx="523.6" cy="620.6" r="4.2" fill="#EDEDED" opacity="0.350"/><circle cx="554.2" cy="620.6" r="4.2" fill="#EDEDED" opacity="0.322"/><circle cx="584.7" cy="620.6" r="4.2" fill="#EDEDED" opacity="0.296"/><circle cx="615.3" cy="620.6" r="4.2" fill="#EDEDED" opacity="0.270"/><circle cx="645.8" cy="620.6" r="4.2" fill="#EDEDED" opacity="0.245"/><circle cx="676.4" cy="620.6" r="4.2" fill="#EDEDED" opacity="0.221"/><circle cx="706.9" cy="620.6" r="4.2" fill="#EDEDED" opacity="0.198"/><circle cx="737.5" cy="620.6" r="4.2" fill="#EDEDED" opacity="0.175"/><circle cx="768.0" cy="620.6" r="4.2" fill="#EDEDED" opacity="0.154"/><circle cx="798.5" cy="620.6" r="4.2" fill="#EDEDED" opacity="0.133"/><circle cx="829.1" cy="620.6" r="4.2" fill="#EDEDED" opacity="0.114"/><circle cx="859.6" cy="620.6" r="4.2" fill="#EDEDED" opacity="0.095"/><circle cx="890.2" cy="620.6" r="4.2" fill="#EDEDED" opacity="0.078"/><circle cx="920.7" cy="620.6" r="4.2" fill="#EDEDED" opacity="0.062"/><circle cx="951.3" cy="620.6" r="4.2" fill="#EDEDED" opacity="0.047"/><circle cx="96.0" cy="650.0" r="4.2" fill="#EDEDED" opacity="0.800"/><circle cx="126.5" cy="650.0" r="4.2" fill="#EDEDED" opacity="0.764"/><circle cx="157.1" cy="650.0" r="4.2" fill="#EDEDED" opacity="0.728"/><circle cx="187.6" cy="650.0" r="4.2" fill="#EDEDED" opacity="0.693"/><circle cx="218.2" cy="650.0" r="4.2" fill="#EDEDED" opacity="0.659"/><circle cx="248.7" cy="650.0" r="4.2" fill="#EDEDED" opacity="0.625"/><circle cx="279.3" cy="650.0" r="4.2" fill="#EDEDED" opacity="0.592"/><circle cx="309.8" cy="650.0" r="4.2" fill="#EDEDED" opacity="0.559"/><circle cx="340.4" cy="650.0" r="4.2" fill="#EDEDED" opacity="0.528"/><circle cx="370.9" cy="650.0" r="4.2" fill="#EDEDED" opacity="0.496"/><circle cx="401.5" cy="650.0" r="4.2" fill="#EDEDED" opacity="0.465"/><circle cx="432.0" cy="650.0" r="4.2" fill="#EDEDED" opacity="0.435"/><circle cx="462.5" cy="650.0" r="4.2" fill="#EDEDED" opacity="0.406"/><circle cx="493.1" cy="650.0" r="4.2" fill="#EDEDED" opacity="0.377"/><circle cx="523.6" cy="650.0" r="4.2" fill="#EDEDED" opacity="0.350"/><circle cx="554.2" cy="650.0" r="4.2" fill="#EDEDED" opacity="0.322"/><circle cx="584.7" cy="650.0" r="4.2" fill="#EDEDED" opacity="0.296"/><circle cx="615.3" cy="650.0" r="4.2" fill="#EDEDED" opacity="0.270"/><circle cx="645.8" cy="650.0" r="4.2" fill="#EDEDED" opacity="0.245"/><circle cx="676.4" cy="650.0" r="4.2" fill="#EDEDED" opacity="0.221"/><circle cx="706.9" cy="650.0" r="4.2" fill="#EDEDED" opacity="0.198"/><circle cx="737.5" cy="650.0" r="4.2" fill="#EDEDED" opacity="0.175"/><circle cx="768.0" cy="650.0" r="4.2" fill="#EDEDED" opacity="0.154"/><circle cx="798.5" cy="650.0" r="4.2" fill="#EDEDED" opacity="0.133"/><circle cx="829.1" cy="650.0" r="4.2" fill="#EDEDED" opacity="0.114"/><circle cx="859.6" cy="650.0" r="4.2" fill="#EDEDED" opacity="0.095"/><circle cx="890.2" cy="650.0" r="4.2" fill="#EDEDED" opacity="0.078"/><circle cx="920.7" cy="650.0" r="4.2" fill="#EDEDED" opacity="0.062"/><circle cx="951.3" cy="650.0" r="4.2" fill="#EDEDED" opacity="0.047"/>
<text x="96" y="730" font-family="'IBM Plex Mono', ui-monospace, monospace" font-size="22" letter-spacing="6" fill="#5A5A5A">THE FORGETTING PROBLEM</text>
<text x="1104" y="730" text-anchor="end" font-family="'IBM Plex Mono', ui-monospace, monospace" font-size="22" letter-spacing="2" fill="#E8F5E0">memory<tspan baseline-shift="super" font-size="13" fill="#FF5A4D">1</tspan></text>
</svg>